<svg xmlns="http://www.w3.org/2000/svg" width="1000" height="4900" viewBox="0 0 1000 4900">
<defs>
  <linearGradient id="night" x1="0" x2="1"><stop stop-color="#07101c"/><stop offset=".56" stop-color="#263241"/><stop offset="1" stop-color="#b26742"/></linearGradient>
  <linearGradient id="wood" x1="0" x2="1"><stop stop-color="#8b5e36"/><stop offset=".5" stop-color="#d7a86e"/><stop offset="1" stop-color="#80512d"/></linearGradient>
  <linearGradient id="paper" x1="0" y1="0" x2="0" y2="1"><stop stop-color="#fffdf4"/><stop offset="1" stop-color="#d9d0be"/></linearGradient>
  <linearGradient id="sea" x1="0" y1="0" x2="0" y2="1"><stop stop-color="#f1a05c"/><stop offset=".48" stop-color="#31536a"/><stop offset="1" stop-color="#0d2634"/></linearGradient>
  <radialGradient id="sun"><stop stop-color="#fff4bd"/><stop offset=".35" stop-color="#ffbe6c" stop-opacity=".85"/><stop offset="1" stop-color="#ff7b45" stop-opacity="0"/></radialGradient>
  <radialGradient id="heat"><stop stop-color="#fff1a8"/><stop offset=".34" stop-color="#ffad5c"/><stop offset="1" stop-color="#d45837" stop-opacity="0"/></radialGradient>
  <linearGradient id="tech" x1="0" x2="1"><stop stop-color="#050b18"/><stop offset=".45" stop-color="#0b3150"/><stop offset="1" stop-color="#174b78"/></linearGradient>
  <filter id="shadow" x="-30%" y="-30%" width="160%" height="160%"><feDropShadow dx="0" dy="18" stdDeviation="18" flood-color="#000" flood-opacity=".42"/></filter>
  <filter id="soft"><feGaussianBlur stdDeviation="18"/></filter>
  <filter id="grain" x="0" y="0" width="100%" height="100%"><feTurbulence baseFrequency=".9" numOctaves="3" seed="9" type="fractalNoise" result="n"/><feColorMatrix in="n" type="saturate" values="0"/><feComponentTransfer><feFuncA type="table" tableValues="0 .12"/></feComponentTransfer></filter>
  <pattern id="rack" width="90" height="42" patternUnits="userSpaceOnUse"><rect width="90" height="42" fill="#081827"/><rect x="7" y="8" width="76" height="5" rx="2" fill="#2e8cc8" opacity=".7"/><rect x="7" y="19" width="48" height="4" rx="2" fill="#54b7df" opacity=".35"/><circle cx="76" cy="27" r="3" fill="#ff6a4f"/><circle cx="66" cy="27" r="3" fill="#65d5ff"/></pattern>
</defs>
<g transform="translate(0 0)">
  <rect width="1000" height="700" fill="url(#night)"/>
  <circle cx="820" cy="120" r="250" fill="url(#sun)" opacity=".35"/>
  <g filter="url(#shadow)"><rect x="150" y="470" width="120" height="150" rx="8" fill="url(#wood)"/><rect x="290" y="420" width="120" height="200" rx="8" fill="url(#wood)"/><rect x="430" y="355" width="120" height="265" rx="8" fill="url(#wood)"/><rect x="570" y="275" width="120" height="345" rx="8" fill="url(#wood)"/><rect x="720" y="160" width="125" height="460" rx="8" fill="url(#wood)"/></g>
  <g opacity=".25" stroke="#fff" stroke-width="2"><path d="M165 520h90M305 480h90M445 430h90M585 355h90M735 260h95"/><path d="M165 550h90M305 510h90M445 460h90M585 385h90M735 290h95"/></g>
  <path d="M806 44c-23 38-39 79-53 121-12 36-21 73-30 109l91 22c14-40 30-79 50-116 20-37 48-72 45-117-2-28-15-51-39-62-26-12-49 7-64 43z" fill="#c88f6b" opacity=".93" filter="url(#shadow)"/><path d="M732 270c-8 45-18 92-27 136l83 20c13-49 25-96 31-145z" fill="#c88f6b" opacity=".93"/><rect width="1000" height="700" filter="url(#grain)" opacity=".5"/>
</g>
<g transform="translate(0 700)">
  <rect width="1000" height="700" fill="#875a36"/><g opacity=".2" stroke="#4b2d18" stroke-width="3"><path d="M0 110h1000M0 240h1000M0 370h1000M0 500h1000M0 630h1000"/></g>
  <g filter="url(#shadow)"><rect x="185" y="95" width="565" height="480" rx="14" fill="url(#paper)" transform="rotate(4 467 335)"/><rect x="265" y="135" width="540" height="450" rx="14" fill="#ece5d5" transform="rotate(-3 535 360)"/></g>
  <g opacity=".32" fill="#777269"><rect x="330" y="210" width="360" height="10" rx="5"/><rect x="330" y="250" width="300" height="10" rx="5"/><rect x="330" y="310" width="390" height="10" rx="5"/><rect x="330" y="350" width="335" height="10" rx="5"/><rect x="330" y="410" width="375" height="10" rx="5"/></g>
  <g filter="url(#shadow)"><rect x="690" y="400" width="180" height="205" rx="18" fill="#28323b"/><g fill="#6fb4c9" opacity=".7"><rect x="720" y="455" width="40" height="28" rx="4"/><rect x="780" y="455" width="40" height="28" rx="4"/><rect x="720" y="505" width="40" height="28" rx="4"/><rect x="780" y="505" width="40" height="28" rx="4"/></g></g>
  <path d="M115 45c70 15 145 66 185 129 20 32 23 73-6 98-24 21-61 17-84-5-41-39-81-85-132-111-28-14-43-58-22-85 13-17 36-31 59-26z" fill="#b87855"/><path d="M868 74c-73 13-148 59-191 119-23 31-28 71-1 98 23 23 60 21 84 0 44-36 87-80 140-102 29-12 48-55 29-83-12-18-36-36-61-32z" fill="#c48c68"/><circle cx="865" cy="545" r="88" fill="#20282e"/><circle cx="865" cy="545" r="62" fill="#6f4d35"/><rect width="1000" height="700" filter="url(#grain)" opacity=".45"/>
</g>
<g transform="translate(0 1400)">
  <rect width="1000" height="700" fill="#1c2733"/><rect x="760" y="70" width="170" height="350" fill="#f7efd4" opacity=".95"/><rect x="735" y="45" width="220" height="400" fill="#ffe6ad" opacity=".18" filter="url(#soft)"/>
  <g filter="url(#shadow)"><path d="M100 560h220v100H100z" fill="#a47649"/><path d="M320 470h220v190H320z" fill="#bd8d59"/><path d="M540 355h220v305H540z" fill="#d2a56d"/><path d="M760 210h180v450H760z" fill="#e4bd83"/></g>
  <g stroke="#fff" stroke-opacity=".18"><path d="M130 600h160M350 525h160M570 430h160M790 315h120"/><path d="M130 625h160M350 550h160M570 455h160M790 340h120"/></g><path d="M60 640L820 110" stroke="#ff6a4f" stroke-width="5" stroke-opacity=".55"/><rect width="1000" height="700" filter="url(#grain)" opacity=".4"/>
</g>
<g transform="translate(0 2100)">
  <rect width="1000" height="700" fill="url(#sea)"/><circle cx="780" cy="170" r="190" fill="url(#sun)"/><g opacity=".28" stroke="#bce2ed" stroke-width="3"><path d="M0 500c150-28 280 22 420 0s270-25 580 0M0 545c180-25 350 28 520 0s260-25 480 0M0 600c160-22 330 25 500 0s280-28 500 0"/></g>
  <g filter="url(#shadow)"><path d="M150 420h620l145 95-685 34z" fill="#19242b"/><rect x="300" y="335" width="420" height="95" fill="#27333a"/><rect x="555" y="260" width="125" height="80" fill="#303c43"/><rect x="605" y="205" width="22" height="65" fill="#263139"/><g fill="#596166"><circle cx="360" cy="390" r="22"/><circle cx="430" cy="390" r="22"/><circle cx="500" cy="390" r="22"/><circle cx="570" cy="390" r="22"/></g></g><path d="M210 550c220 15 460 2 730-10" stroke="#fff" stroke-opacity=".24" stroke-width="24"/><rect width="1000" height="700" filter="url(#grain)" opacity=".43"/>
</g>
<g transform="translate(0 2800)">
  <rect width="1000" height="700" fill="#34414b"/><ellipse cx="500" cy="360" rx="330" ry="245" fill="#11181e" opacity=".48" filter="url(#shadow)"/><ellipse cx="500" cy="330" rx="310" ry="225" fill="#b08a5e"/><ellipse cx="500" cy="330" rx="210" ry="140" fill="#28343c"/>
  <g fill="#f4ecda" opacity=".85"><rect x="470" y="105" width="58" height="82" rx="5"/><rect x="650" y="150" width="58" height="82" rx="5" transform="rotate(35 679 191)"/><rect x="748" y="275" width="58" height="82" rx="5" transform="rotate(72 777 316)"/><rect x="714" y="440" width="58" height="82" rx="5" transform="rotate(110 743 481)"/><rect x="560" y="505" width="58" height="82" rx="5" transform="rotate(150 589 546)"/><rect x="380" y="505" width="58" height="82" rx="5" transform="rotate(-150 409 546)"/><rect x="228" y="440" width="58" height="82" rx="5" transform="rotate(-110 257 481)"/><rect x="194" y="275" width="58" height="82" rx="5" transform="rotate(-72 223 316)"/><rect x="292" y="150" width="58" height="82" rx="5" transform="rotate(-35 321 191)"/></g>
  <g fill="#171f25"><circle cx="500" cy="74" r="38"/><circle cx="730" cy="120" r="38"/><circle cx="875" cy="300" r="38"/><circle cx="820" cy="520" r="38"/><circle cx="620" cy="625" r="38"/><circle cx="380" cy="625" r="38"/><circle cx="180" cy="520" r="38"/><circle cx="125" cy="300" r="38"/><circle cx="270" cy="120" r="38"/></g><rect width="1000" height="700" filter="url(#grain)" opacity=".42"/>
</g>
<g transform="translate(0 3500)">
  <rect width="1000" height="700" fill="#c7643e"/><circle cx="190" cy="135" r="220" fill="url(#heat)"/><g fill="#3c4648" opacity=".55"><rect x="0" y="300" width="110" height="280"/><rect x="130" y="255" width="95" height="325"/><rect x="250" y="335" width="130" height="245"/><rect x="400" y="285" width="90" height="295"/></g><path d="M610 110h365l-70 300H560z" fill="#15242b" opacity=".9"/>
  <g fill="#252a2c" filter="url(#shadow)"><circle cx="420" cy="275" r="58"/><rect x="355" y="325" width="130" height="245" rx="55"/><rect x="310" y="385" width="65" height="230" rx="30"/><rect x="465" y="385" width="65" height="230" rx="30"/><rect x="375" y="535" width="48" height="145" rx="22"/><rect x="435" y="535" width="48" height="145" rx="22"/></g><rect x="690" y="415" width="55" height="185" rx="22" fill="#bde5ec"/><rect x="716" y="380" width="9" height="45" fill="#d9f3f5"/><rect x="790" y="470" width="150" height="96" rx="18" fill="#596064"/><rect width="1000" height="700" filter="url(#grain)" opacity=".4"/>
</g>
<g transform="translate(0 4200)">
  <rect width="1000" height="700" fill="url(#tech)"/><g filter="url(#shadow)"><rect x="90" y="75" width="190" height="560" rx="12" fill="url(#rack)"/><rect x="310" y="50" width="190" height="585" rx="12" fill="url(#rack)"/><rect x="530" y="85" width="190" height="550" rx="12" fill="url(#rack)"/><rect x="750" y="45" width="160" height="590" rx="12" fill="url(#rack)"/></g><path d="M160 610C300 470 430 540 560 380S760 260 860 120" fill="none" stroke="#55d8ff" stroke-width="8" stroke-opacity=".65"/><path d="M190 635C340 520 470 570 630 420S820 290 905 170" fill="none" stroke="#ff6547" stroke-width="5" stroke-opacity=".5"/><g fill="#75dcff"><circle cx="160" cy="610" r="12"/><circle cx="560" cy="380" r="12"/><circle cx="860" cy="120" r="12"/></g><rect width="1000" height="700" filter="url(#grain)" opacity=".48"/>
</g>
</svg>